<?xml version="1.0"?>
<svg xmlns="http://www.w3.org/2000/svg" height="512px" viewBox="-8 0 511 511.99953" width="512px" class=""><g><path d="m228.839844 251.160156c10.800781 0 21.710937-3.144531 31.265625-9.699218 12.1875-8.367188 20.386719-20.980469 23.085937-35.519532 2.699219-14.539062-.425781-29.253906-8.800781-41.433594-17.289063-25.152343-51.828125-31.554687-76.984375-14.28125-12.191406 8.363282-20.394531 20.972657-23.09375 35.507813-2.703125 14.539063.425781 29.261719 8.804688 41.449219 10.71875 15.59375 28.074218 23.976562 45.722656 23.976562zm-34.605469-61.726562c1.710937-9.210938 6.910156-17.199219 14.640625-22.503906 6.058594-4.160157 12.976562-6.15625 19.828125-6.15625 11.183594 0 22.191406 5.320312 28.992187 15.210937 5.304688 7.71875 7.285157 17.042969 5.574219 26.257813-1.710937 9.214843-6.910156 17.214843-14.628906 22.515624-15.964844 10.945313-37.863281 6.886719-48.824219-9.050781-5.3125-7.726562-7.292968-17.058593-5.582031-26.273437zm0 0" data-original="#000000" class="active-path" data-old_color="#FF8400" fill="#FD9425"/><path d="m231.464844 295.160156c-8.070313 5.546875-13.496094 13.898438-15.285156 23.515625-1.789063 9.621094.28125 19.359375 5.832031 27.421875 5.535156 8.074219 13.890625 13.503906 23.523437 15.289063 2.261719.421875 4.523438.628906 6.773438.628906 7.339844 0 14.503906-2.210937 20.671875-6.453125 8.074219-5.53125 13.503906-13.886719 15.289062-23.519531 1.78125-9.621094-.285156-19.363281-5.828125-27.445313-11.449218-16.621094-34.308594-20.859375-50.976562-9.4375zm36.878906 33.195313c-.796875 4.300781-3.222656 8.027343-6.835938 10.507812-3.605468 2.476563-7.96875 3.402344-12.273437 2.605469-4.308594-.800781-8.039063-3.226562-10.511719-6.832031-.003906-.003907-.007812-.007813-.011718-.011719-2.480469-3.601562-3.40625-7.953125-2.605469-12.25.796875-4.300781 3.230469-8.039062 6.832031-10.515625 2.832031-1.941406 6.066406-2.871094 9.265625-2.871094 5.226563 0 10.363281 2.480469 13.535156 7.085938 2.476563 3.609375 3.402344 7.972656 2.605469 12.28125zm0 0" data-original="#000000" class="active-path" data-old_color="#FF8400" fill="#FD9425"/><path d="m333.921875 316c1.902344 3.160156 5.253906 4.90625 8.691406 4.90625 1.777344 0 3.578125-.46875 5.214844-1.453125l.144531-.085937c4.792969-2.882813 6.339844-9.109376 3.453125-13.902344-2.886719-4.792969-9.109375-6.339844-13.90625-3.453125l-.140625.085937c-4.796875 2.882813-6.34375 9.109375-3.457031 13.902344zm0 0" data-original="#000000" class="active-path" data-old_color="#FF8400" fill="#FD9425"/><path d="m83.679688 356.277344-.144532.085937c-4.800781 2.878907-6.355468 9.101563-3.476562 13.898438 1.898437 3.167969 5.257812 4.921875 8.699218 4.921875 1.773438 0 3.570313-.46875 5.203126-1.445313l.144531-.085937c4.796875-2.878906 6.351562-9.101563 3.472656-13.898438s-9.101563-6.355468-13.898437-3.476562zm0 0" data-original="#000000" class="active-path" data-old_color="#FF8400" fill="#FD9425"/><path d="m134.273438 274.179688c-16.664063 11.433593-20.921876 34.285156-9.492188 50.945312 0 .003906.003906.007812.007812.015625 7.109376 10.324219 18.609376 15.878906 30.296876 15.878906 7.140624 0 14.351562-2.074219 20.667968-6.402343 16.652344-11.425782 20.914063-34.289063 9.484375-50.992188-11.445312-16.625-34.304687-20.863281-50.964843-9.445312zm30.019531 43.726562c-7.445313 5.101562-17.671875 3.199219-22.804688-4.242188-5.105469-7.449218-3.199219-17.667968 4.246094-22.777343 7.457031-5.109375 17.691406-3.210938 22.796875 4.203125 5.113281 7.46875 3.207031 17.707031-4.238281 22.816406zm0 0" data-original="#000000" class="active-path" data-old_color="#FF8400" fill="#FD9425"/><path d="m314.25 241.722656-.144531.113282c-4.367188 3.496093-5.078125 9.871093-1.582031 14.242187 2.003906 2.5 4.949218 3.800781 7.917968 3.800781 2.222656 0 4.457032-.726562 6.324219-2.21875l.144531-.117187c4.371094-3.496094 5.078125-9.871094 1.582032-14.238281-3.496094-4.371094-9.875-5.078126-14.242188-1.582032zm0 0" data-original="#000000" class="active-path" data-old_color="#FF8400" fill="#FD9425"/><path d="m494.699219 323.554688c-8.824219-58.921876-35.410157-123.417969-74.855469-181.605469-.023438-.035157-.050781-.074219-.074219-.109375-40.179687-57.660156-90.863281-105.597656-142.726562-134.992188-26.804688-15.171875-40.351563-4.113281-57.367188 23.132813-23.402343 37.4375-47.101562 75.542969-70.023437 112.394531-30.890625 49.675781-62.835938 101.039062-94.46875 151.4375l-40.066406 63.851562c-16.253907 24.515626-19.097657 48.894532-7.804688 66.902344.152344.238282.308594.46875.476562.691406 4.558594 6.085938 10.703126 10.902344 18.015626 14.171876v31.414062c0 16.519531 7.105468 29.886719 19.496093 36.664062 5.488281 3.003907 11.667969 4.492188 17.859375 4.492188 7.121094 0 14.253906-1.972656 20.359375-5.878906 10.914063-6.984375 16.730469-18.769532 16.046875-32.425782.652344-6.804687 3.671875-10.1875 9.011719-10.023437 4.625.136719 11.1875 3.492187 11.292969 10.441406.089844 18.429688 16.875 29.804688 32.40625 29.804688h.078125c15.394531-.039063 30.929687-10.910157 30.929687-35.113281v-48.335938c46.230469-8.964844 93.082032-17.921875 138.476563-26.601562 42.855469-8.195313 87.171875-16.667969 130.738281-25.105469 31.578125-6.082031 46.773438-14.746094 42.199219-45.207031zm-21.5625 17.046874c-4.082031 3.972657-15.921875 6.621094-24.480469 8.269532-3.230469.625-6.46875 1.25-9.707031 1.875-9.542969-56.292969-32.617188-110.523438-70.351563-165.445313-4.902344-7.109375-9.992187-14.085937-15.132812-20.734375-3.425782-4.425781-9.789063-5.238281-14.214844-1.816406s-5.238281 9.785156-1.816406 14.210938c4.914062 6.355468 9.785156 13.03125 14.46875 19.824218 36.125 52.574219 58.140625 104.300782 67.140625 157.804688-33.890625 6.527344-67.925781 13.035156-101.089844 19.378906-48.09375 9.195312-97.824219 18.703125-146.730469 28.203125-4.761718.925781-8.199218 5.09375-8.199218 9.945313v56.6875c0 6.765624-1.863282 14.832031-10.71875 14.855468-.011719 0-.023438 0-.035157 0-5.84375 0-12.109375-3.871094-12.136719-9.746094-.273437-18.53125-15.957031-30.054687-30.96875-30.492187-13.761718-.386719-28.339843 8.542969-29.863281 29.414063-.035156.480468-.035156.957031 0 1.433593.570313 8.308594-3.332031 12.628907-6.707031 14.785157-5.183594 3.316406-12.242188 3.589843-17.566406.679687-5.863282-3.207031-8.960938-9.742187-8.960938-18.890625v-38.5c0-4.542969-3.019531-8.527344-7.390625-9.753906-6.199219-1.742188-11.046875-4.816406-14.414062-9.144532-6.617188-10.988281-3.785157-27.242187 7.808593-44.683593.046876-.074219.09375-.148438.140626-.222657l40.132812-63.957031c31.65625-50.433593 63.613281-101.816406 94.515625-151.507812 16.65625-26.777344 33.722656-54.222657 50.789063-81.585938 22.46875 12.386719 44.671874 28.371094 66.117187 47.625 1.933594 1.738281 4.355469 2.59375 6.765625 2.59375 2.777344 0 5.542969-1.136719 7.542969-3.363281 3.738281-4.164062 3.394531-10.566406-.769531-14.304688-22.285157-20.011718-45.421876-36.714843-68.914063-49.769531 2.828125-4.527343 5.648437-9.046875 8.46875-13.554687 4.609375-7.382813 11.335937-17.46875 16.515625-19.847656 1.40625-.648438 4.027344-1.851563 13.679688 3.613281 49.257812 27.917969 97.574218 73.6875 136.050781 128.894531 37.757812 55.714844 63.167969 117.214844 71.550781 173.1875 1.648438 10.953125-.414062 12.960938-1.519531 14.039062zm0 0" data-original="#000000" class="active-path" data-old_color="#FF8400" fill="#FD9425"/><path d="m312.480469 147.421875c1.976562 1.972656 4.5625 2.957031 7.152343 2.957031 2.597657 0 5.195313-.992187 7.175782-2.980468 3.949218-3.960938 3.9375-10.375-.023438-14.324219l-.144531-.144531c-3.964844-3.949219-10.378906-3.9375-14.328125.023437-3.953125 3.964844-3.941406 10.378906.023438 14.328125zm0 0" data-original="#000000" class="active-path" data-old_color="#FF8400" fill="#FD9425"/><head class="active-path" style="fill:#FD9425" data-old_color="#FF8400"/></g> </svg>
